<svg width="9" height="19" viewBox="0 0 9 19" fill="none" xmlns="http://www.w3.org/2000/svg">
<path d="M5.02734 18.2461H1.91016V4.39453C1.91016 3.44141 2.09375 2.64062 2.46094 1.99219C2.82812 1.33594 3.35156 0.839844 4.03125 0.503906C4.71094 0.167969 5.51172 0 6.43359 0C6.73828 0 7.02734 0.0195313 7.30078 0.0585938C7.58203 0.0976562 7.85938 0.152344 8.13281 0.222656L8.07422 2.57812C7.92578 2.53906 7.76172 2.51172 7.58203 2.49609C7.41016 2.48047 7.21875 2.47266 7.00781 2.47266C6.58594 2.47266 6.22656 2.54687 5.92969 2.69531C5.63281 2.84375 5.40625 3.0625 5.25 3.35156C5.10156 3.63281 5.02734 3.98047 5.02734 4.39453V18.2461ZM7.59375 5.56641V7.79297H0V5.56641H7.59375Z" fill="#3B5998"/>
</svg>
